<?xml version="1.0" standalone="no"?>
<!DOCTYPE svg PUBLIC "-//W3C//DTD SVG 20010904//EN"
 "http://www.w3.org/TR/2001/REC-SVG-20010904/DTD/svg10.dtd">
<svg version="1.0" xmlns="http://www.w3.org/2000/svg"
 width="2667.000000pt" height="2354.000000pt" viewBox="0 0 2667.000000 2354.000000"
 preserveAspectRatio="xMidYMid meet">
<metadata>
Created by potrace 1.16, written by Peter Selinger 2001-2019
</metadata>
<g transform="translate(0.000000,2354.000000) scale(0.592667,-0.523111)"
fill="#000000" stroke="none">
<path d="M2159 3807 c-118 -44 -179 -130 -179 -251 1 -137 112 -246 253 -246
267 0 353 358 115 481 -50 25 -143 33 -189 16z m151 -78 c127 -55 147 -229 36
-314 -93 -71 -237 -34 -282 72 -30 69 -9 168 44 216 25 23 87 46 125 47 16 0
50 -9 77 -21z"/>
<path d="M2122 3260 c-117 -31 -207 -84 -298 -175 -70 -69 -88 -95 -132 -185
-60 -124 -88 -232 -103 -390 -13 -135 -6 -200 24 -255 59 -106 230 -112 273
-10 l14 34 349 1 349 0 10 -27 c23 -64 82 -93 160 -78 61 11 97 40 122 98 21
48 22 62 17 192 -11 269 -89 476 -232 621 -156 157 -368 224 -553 174z m48
-127 c0 -7 11 -15 25 -19 20 -5 23 -11 19 -32 -3 -15 -22 -124 -44 -242 l-38
-215 23 -40 c39 -66 80 -109 97 -102 9 3 37 35 63 71 l46 65 -41 228 c-23 125
-43 235 -46 244 -3 11 3 19 20 23 19 5 28 17 37 46 14 47 12 47 137 -11 234
-108 372 -381 372 -734 0 -52 -5 -106 -12 -120 -24 -53 -109 -73 -144 -34 -17
19 -19 38 -19 198 0 162 -2 180 -23 226 -24 53 -87 125 -109 125 -7 0 -17 -9
-23 -20 -9 -17 -6 -27 19 -59 68 -85 82 -159 65 -329 l-7 -61 -338 -1 c-219 0
-340 3 -344 10 -3 5 -7 67 -8 137 -2 139 6 167 68 241 28 34 33 67 9 76 -20 8
-35 -1 -66 -39 -71 -85 -93 -178 -78 -331 14 -151 -4 -194 -80 -194 -46 0 -86
44 -96 106 -10 69 11 262 41 374 29 105 85 219 146 291 50 60 158 134 240 164
l64 23 12 -26 c7 -15 12 -33 13 -39z m105 -324 c31 -169 31 -186 -4 -228 l-27
-33 -31 41 c-30 41 -30 42 -18 104 7 34 21 106 30 160 10 54 19 96 21 94 2 -2
15 -64 29 -138z"/>
<path d="M1169 2281 c-101 -55 -144 -170 -100 -266 17 -39 81 -105 101 -105 6
0 10 -4 10 -10 0 -5 -11 -10 -25 -10 -55 0 -175 -82 -175 -120 0 -6 -19 -10
-43 -10 -141 0 -247 -110 -247 -254 1 -141 138 -254 282 -232 57 9 130 55 160
100 l23 36 192 0 c165 0 194 2 208 17 25 24 18 271 -9 325 -35 72 -102 123
-178 136 l-40 7 45 31 c117 83 117 255 -1 338 -56 39 -148 47 -203 17z m181
-86 c110 -105 2 -273 -144 -225 -98 32 -114 184 -24 240 49 31 128 24 168 -15z
m14 -375 c54 -12 87 -38 114 -91 20 -39 22 -56 20 -144 l-3 -100 -157 -3 -158
-3 0 29 c0 81 -59 184 -125 220 -19 10 -19 11 5 37 29 31 54 46 95 56 43 10
164 10 209 -1z m-361 -144 c67 -27 116 -118 103 -189 -15 -81 -79 -138 -160
-145 -104 -8 -186 68 -186 174 0 65 25 111 79 145 51 33 110 38 164 15z"/>
<path d="M3155 2281 c-106 -48 -153 -179 -100 -281 13 -26 61 -72 101 -97 17
-11 16 -12 -14 -12 -45 -1 -117 -37 -149 -75 -53 -63 -63 -99 -63 -246 0 -93
4 -140 12 -148 8 -8 68 -12 203 -12 l191 0 37 -45 c111 -132 299 -124 394 18
37 56 51 132 34 195 -27 97 -134 182 -232 182 -27 0 -49 4 -49 8 0 5 -17 26
-37 47 -41 42 -103 74 -148 75 -27 1 -28 2 -11 13 81 52 116 109 116 192 0
152 -148 249 -285 186z m175 -86 c61 -59 59 -148 -6 -204 -28 -25 -44 -31 -81
-31 -140 0 -194 172 -78 251 45 30 125 22 165 -16z m64 -394 c20 -13 41 -32
47 -43 9 -17 5 -25 -32 -56 -50 -43 -89 -121 -89 -179 l0 -43 -160 0 -160 0 0
110 c0 118 8 146 53 188 44 41 92 53 203 49 84 -3 107 -7 138 -26z m264 -138
c32 -23 70 -77 78 -110 12 -45 -6 -112 -39 -150 -57 -65 -135 -80 -214 -42
-121 58 -125 233 -7 306 32 20 49 23 97 20 37 -2 67 -10 85 -24z"/>
<path d="M1710 2068 c-5 -13 -41 -183 -79 -378 -39 -195 -95 -481 -126 -636
-30 -154 -56 -298 -58 -320 l-2 -39 800 0 800 0 2 35 c1 19 -57 332 -130 695
l-132 660 -533 3 -532 2 -10 -22z m1025 -70 c2 -13 34 -174 70 -358 36 -184
90 -456 120 -605 29 -148 51 -273 48 -278 -2 -4 -330 -7 -729 -7 -564 0 -724
3 -724 13 0 6 54 285 120 618 66 334 120 614 120 623 0 14 47 16 485 16 l485
0 5 -22z"/>
<path d="M755 1248 c-78 -29 -152 -105 -181 -185 -15 -42 -20 -339 -6 -361 7
-9 87 -12 368 -10 l359 3 3 173 c2 151 0 178 -16 216 -25 56 -75 111 -131 144
-44 26 -52 27 -206 29 -98 1 -172 -2 -190 -9z m350 -77 c22 -10 53 -31 69 -47
49 -49 59 -87 64 -231 4 -120 3 -131 -13 -135 -10 -1 -148 -2 -307 0 l-288 3
0 122 c0 142 8 178 52 231 52 64 92 76 248 76 110 0 142 -4 175 -19z"/>
<path d="M3386 1245 c-85 -30 -156 -104 -181 -188 -15 -51 -22 -317 -9 -351 5
-14 47 -16 365 -16 l359 0 11 28 c7 16 9 83 7 172 -5 168 -20 215 -91 288 -65
66 -120 82 -285 82 -90 -1 -150 -6 -176 -15z m336 -65 c52 -15 115 -82 133
-143 17 -58 21 -277 5 -277 -5 0 -142 0 -302 0 l-293 -1 -3 121 c-3 141 6 183
50 233 57 64 95 76 243 77 72 0 146 -5 167 -10z"/>
</g>
</svg>
