<?xml version="1.0" standalone="no"?>
<!DOCTYPE svg PUBLIC "-//W3C//DTD SVG 20010904//EN"
 "http://www.w3.org/TR/2001/REC-SVG-20010904/DTD/svg10.dtd">
<svg version="1.0" xmlns="http://www.w3.org/2000/svg"
 width="2000.000000pt" height="1767.000000pt" viewBox="0 0 2000.000000 1767.000000"
 preserveAspectRatio="xMidYMid meet">
<metadata>
Created by potrace 1.16, written by Peter Selinger 2001-2019
</metadata>
<g transform="translate(0.000000,1767.000000) scale(0.100000,-0.100000)"
fill="#000000" stroke="none">
<path d="M4900 17660 c0 -7 165 -10 474 -10 261 0 477 -4 480 -9 3 -4 1962
-11 4353 -16 2541 -4 4350 -11 4354 -16 3 -5 535 -11 1255 -13 1786 -6 3445
-23 3458 -36 7 -7 -169 -10 -551 -10 -400 0 -562 3 -565 11 -6 17 -13480 19
-13485 2 -3 -9 -35 -13 -113 -13 -83 0 -112 -4 -124 -15 -8 -8 -19 -15 -24
-15 -5 0 -19 -9 -31 -19 -12 -11 -41 -34 -64 -52 -48 -38 -183 -173 -209 -209
-10 -13 -18 -30 -18 -37 0 -7 -4 -13 -10 -13 -14 0 -12 -37 3 -44 10 -5 10 -7
0 -12 -7 -3 -13 -14 -13 -24 0 -10 -13 -48 -30 -83 -16 -36 -30 -70 -30 -76 0
-6 -4 -11 -9 -11 -6 0 -13 -21 -17 -47 -3 -27 -11 -53 -15 -59 -5 -6 -12 -62
-16 -123 -3 -61 -10 -111 -14 -111 -15 0 -36 -752 -38 -1327 -1 -438 2 -473
40 -473 10 0 30 -12 46 -27 35 -34 88 -63 114 -63 10 0 19 -4 19 -10 0 -6 45
-10 114 -10 66 0 117 4 121 10 3 6 15 10 26 10 10 0 27 4 37 9 9 4 33 16 54
26 42 20 48 35 48 132 0 39 4 73 9 75 6 2 13 299 17 756 4 414 11 755 16 758
4 3 8 39 8 80 0 41 4 74 9 74 5 0 11 22 15 49 3 27 13 54 21 61 8 7 15 18 15
24 0 6 26 36 56 66 l56 55 110 0 c93 0 112 3 122 18 10 13 28 17 73 17 32 0
64 5 71 12 9 9 419 13 1699 16 972 2 1692 8 1698 13 12 12 3795 12 3795 1 0
-5 1429 -11 3176 -15 2264 -4 3179 -8 3187 -16 7 -7 56 -11 123 -11 103 0 112
-2 117 -20 4 -17 14 -20 56 -20 28 0 51 -4 51 -10 0 -5 6 -10 14 -10 23 0 77
-33 115 -70 56 -55 108 -90 131 -90 20 0 22 4 18 39 -3 40 0 41 34 12 17 -15
18 -64 16 -1001 -1 -542 -4 -931 -8 -866 -5 119 -20 162 -34 95 -8 -40 -8
-5326 0 -5356 4 -13 12 -23 19 -23 22 0 25 302 26 2680 0 1293 4 2322 9 2307
5 -16 10 -1522 11 -3348 2 -3087 1 -3321 -15 -3338 -10 -11 -25 -16 -39 -14
-15 3 -31 -5 -51 -26 -17 -17 -33 -31 -37 -31 -8 0 -69 -53 -138 -120 l-46
-44 -794 -1 c-626 0 -795 -3 -798 -12 -3 -7 -15 -13 -28 -13 -13 0 -30 -7 -39
-15 -8 -8 -17 -15 -20 -15 -3 0 -19 -12 -36 -27 -16 -16 -50 -46 -75 -68 -24
-22 -47 -52 -51 -67 -3 -16 -10 -28 -15 -28 -5 0 -9 -20 -9 -45 0 -25 4 -45 9
-45 5 0 12 -25 16 -55 3 -30 10 -55 15 -55 5 0 11 -14 15 -30 4 -17 10 -30 15
-30 4 0 11 -11 14 -25 4 -14 11 -25 16 -25 6 0 10 -5 10 -11 0 -7 8 -18 18
-25 15 -12 14 -13 -15 -14 -26 0 -33 -4 -33 -20 0 -11 6 -20 14 -20 8 0 16 -5
18 -12 3 -9 182 -13 721 -16 395 -3 717 -9 717 -13 0 -5 35 -9 77 -9 79 0 143
-16 143 -35 0 -6 9 -18 20 -28 16 -13 39 -17 100 -17 47 0 80 4 80 10 0 6 12
10 26 10 14 0 42 7 62 16 99 43 112 49 112 55 0 4 12 10 27 14 15 3 30 10 33
13 3 4 27 18 53 32 27 14 56 32 66 41 10 9 27 20 39 23 12 4 22 12 22 17 0 5
8 12 18 16 9 4 67 57 127 119 118 120 118 121 155 174 14 19 27 37 30 40 10
10 31 45 36 63 4 9 10 17 14 17 11 0 30 73 30 114 0 28 -4 36 -18 36 -18 0
-52 -33 -52 -50 0 -6 -4 -10 -10 -10 -5 0 -10 7 -10 15 0 8 4 15 9 15 5 0 11
19 15 43 3 23 9 69 15 102 5 33 10 96 10 141 1 44 5 84 11 90 21 21 30 1419
30 4579 0 3139 -7 4015 -31 4039 -5 6 -9 35 -10 65 0 31 -5 79 -10 106 -6 28
-13 65 -16 83 -3 17 -9 32 -14 32 -5 0 -9 10 -9 22 0 17 3 19 12 10 17 -17 58
-15 58 2 0 8 -4 18 -10 21 -5 3 -10 16 -10 29 0 27 -45 70 -82 79 -29 8 -88
53 -88 68 0 5 14 9 30 9 19 0 30 5 30 14 0 19 -195 216 -215 216 -3 0 -18 11
-33 25 -15 14 -30 25 -34 25 -5 0 -27 14 -50 30 -22 17 -49 30 -60 30 -10 0
-18 4 -18 9 0 5 -18 12 -39 16 -27 4 -38 11 -35 20 6 16 -89 65 -126 65 -14 0
-31 5 -36 10 -6 6 -171 14 -425 20 -574 13 -13879 13 -13879 0z m14084 -10050
c-22 -22 -1214 -55 -1214 -33 0 7 147 13 445 18 245 4 445 11 445 16 0 5 75 9
167 9 106 0 164 -3 157 -10z"/>
<path d="M5550 13980 c-509 -4 -1151 -8 -1428 -9 -398 -1 -503 -4 -500 -13 4
-10 392 -14 1879 -18 l1874 -5 -2587 -3 c-1614 -1 -2588 -6 -2588 -11 0 -6
-266 -11 -690 -13 -534 -2 -692 -6 -702 -15 -7 -8 -39 -13 -81 -13 -68 0 -69
-1 -65 -24 4 -22 1 -24 -56 -30 -33 -3 -62 -10 -66 -15 -3 -5 -18 -13 -33 -16
-15 -4 -27 -11 -27 -16 0 -5 -6 -9 -14 -9 -30 0 -231 -199 -273 -271 -10 -16
-20 -29 -23 -29 -4 0 -24 -26 -46 -57 -21 -32 -41 -60 -44 -63 -13 -12 -40
-70 -40 -84 0 -9 -4 -16 -10 -16 -13 0 -13 -37 1 -45 21 -14 55 5 79 45 14 22
28 40 31 40 4 0 10 11 13 25 4 14 11 25 16 25 14 0 13 -1 -15 -54 -14 -26 -25
-52 -25 -59 0 -7 -7 -24 -15 -40 -8 -15 -17 -54 -21 -87 -5 -48 -10 -60 -24
-60 -14 0 -20 11 -25 42 -7 38 -24 68 -40 68 -3 0 -4 -51 0 -112 3 -62 9 -259
13 -438 5 -179 11 -334 15 -345 4 -11 13 -1442 19 -3180 16 -4729 17 -4868 27
-4890 5 -11 12 -179 14 -373 3 -211 9 -358 15 -365 6 -7 13 -33 17 -59 4 -27
11 -48 16 -48 5 0 9 -35 9 -78 l0 -79 36 -19 c35 -19 36 -19 49 0 17 23 20 16
30 -59 7 -59 33 -113 57 -121 10 -3 18 -10 18 -15 0 -5 9 -9 20 -9 13 0 20 7
20 19 0 16 4 17 35 7 19 -6 35 -14 35 -19 0 -4 10 -12 23 -17 20 -8 19 -9 -10
-9 -23 -1 -33 -6 -33 -16 0 -19 62 -85 79 -85 6 0 11 -3 11 -8 0 -4 17 -16 38
-27 20 -11 43 -26 50 -32 7 -7 20 -13 28 -13 8 0 14 -4 14 -9 0 -5 14 -12 30
-16 17 -4 30 -10 30 -15 0 -4 18 -11 40 -15 22 -4 40 -11 40 -16 0 -5 25 -9
55 -9 46 0 55 3 55 18 0 10 -5 23 -11 29 -14 14 921 6 936 -8 5 -5 67 -9 137
-9 79 0 128 -4 128 -10 0 -6 -129 -10 -367 -10 -494 0 -743 -9 -743 -26 0 -11
103 -15 553 -19 303 -3 912 -8 1353 -12 l801 -8 24 -28 c56 -66 143 -147 158
-147 6 0 11 -4 11 -10 0 -5 11 -10 25 -10 14 0 25 5 25 10 0 6 5 10 10 10 13
0 13 -53 1 -66 -26 -26 -28 -1722 -2 -1779 5 -11 12 -48 14 -82 5 -63 21 -93
51 -93 10 0 16 9 16 25 0 36 14 31 36 -12 10 -21 22 -39 27 -41 4 -2 7 -12 7
-23 0 -16 -4 -17 -26 -9 -47 18 -57 13 -50 -22 8 -42 50 -82 77 -75 24 6 79
-11 79 -24 0 -5 7 -9 15 -9 9 0 18 -7 21 -15 4 -8 12 -15 19 -15 6 0 26 -12
43 -27 51 -46 59 -52 86 -59 14 -3 26 -10 26 -15 0 -4 23 -11 50 -15 28 -4 50
-10 50 -15 0 -5 14 -9 30 -9 46 0 36 -17 -15 -24 -25 -4 -45 -11 -45 -17 0 -5
-9 -9 -20 -9 -11 0 -20 -4 -20 -10 0 -14 234 -13 321 1 38 7 69 16 69 20 0 5
9 9 21 9 19 0 77 27 89 41 3 4 16 10 29 14 30 9 71 45 71 62 0 7 3 12 7 12 18
-3 32 2 45 14 7 7 27 23 43 35 17 12 43 33 59 45 17 12 43 34 58 49 16 15 35
31 42 35 19 11 93 72 134 111 19 17 39 32 44 32 5 0 22 12 37 28 27 26 55 49
122 102 17 14 52 44 77 68 26 23 49 42 53 42 4 0 25 17 47 38 46 43 104 92
147 124 17 12 39 33 50 45 11 13 24 23 29 23 4 0 20 12 36 28 16 15 39 35 52
45 29 22 98 82 148 127 21 19 53 46 71 60 19 13 48 37 64 52 46 41 80 71 116
98 18 14 44 36 58 50 14 14 40 35 56 48 38 28 109 89 145 123 15 14 43 37 61
50 19 13 46 35 60 49 14 14 40 36 58 50 34 26 66 53 116 98 17 15 47 38 68 52
20 14 40 33 43 43 3 9 12 17 19 17 8 0 28 13 45 30 17 16 34 30 39 30 4 0 24
15 43 33 34 31 57 49 123 99 48 37 67 52 87 71 10 9 22 17 27 17 5 0 16 6 23
13 7 6 36 28 63 46 28 19 52 38 55 42 3 3 15 9 28 13 12 4 22 11 22 16 0 5 14
11 30 15 17 4 30 10 30 13 0 4 20 16 45 27 25 11 45 23 45 26 0 4 14 10 30 14
17 4 30 10 30 15 0 4 18 11 40 15 22 4 40 10 40 15 0 4 17 10 39 14 21 3 51
13 67 21 16 8 37 15 46 15 9 0 20 5 23 10 3 5 15 10 26 10 10 0 19 5 19 10 0
6 7 10 15 10 8 0 15 9 15 20 0 18 -7 20 -55 20 -30 0 -55 4 -55 9 0 9 80 21
142 21 20 0 40 5 43 10 4 6 58 10 130 10 81 0 125 4 127 11 3 8 398 13 1406
17 771 3 1402 8 1402 12 0 9 3277 21 3573 13 l234 -6 -5 -24 c-4 -22 -2 -23
67 -23 39 0 71 4 71 9 0 4 16 11 36 14 35 6 74 38 74 62 0 6 -5 16 -12 23 -14
14 12 48 46 58 11 4 24 12 28 18 4 6 11 7 15 2 4 -5 2 -11 -4 -13 -7 -3 -13
-16 -13 -29 0 -33 42 -32 86 1 18 14 37 25 43 25 6 0 11 3 11 8 0 4 17 18 37
32 49 33 153 138 153 155 0 7 5 15 10 17 6 2 14 29 17 61 3 31 10 57 14 57 5
0 9 6 9 14 0 10 13 16 38 18 35 3 37 5 40 42 2 24 -2 42 -10 47 -7 4 -9 12 -4
16 5 4 11 2 13 -4 3 -7 14 -13 25 -13 18 0 20 5 16 55 -2 37 1 55 8 55 19 0
24 27 24 136 0 57 4 104 9 104 17 0 23 857 22 3300 0 3075 -9 5319 -20 5345
-5 11 -12 195 -14 408 -3 220 -9 393 -15 400 -5 7 -12 43 -15 81 -4 38 -11 72
-16 75 -5 4 -13 19 -16 34 -4 15 -11 27 -16 27 -5 0 -9 8 -9 18 0 9 -7 30 -15
46 -8 15 -15 50 -15 77 0 27 -4 49 -10 49 -5 0 -10 5 -10 11 0 13 -22 38 -121
139 -79 80 -166 160 -175 160 -4 0 -20 14 -36 30 -15 17 -35 30 -42 30 -8 0
-16 5 -18 12 -2 6 -25 12 -54 12 -46 1 -49 -1 -52 -26 -2 -18 -9 -28 -20 -28
-22 0 -75 35 -70 46 2 5 -177 10 -404 12 -261 1 -408 6 -408 12 0 7 -952 11
-2767 12 -2677 3 -2710 3 -999 8 1264 4 1770 8 1773 16 3 8 -234 13 -824 17
-1331 11 -5137 15 -6143 7z m7196 -669 c5 -5 466 -11 1062 -13 714 -3 1056 -8
1060 -15 4 -6 45 -12 91 -15 57 -3 86 -9 91 -19 31 -55 49 -64 130 -65 43 -1
84 -6 91 -12 20 -17 66 -58 55 -49 -31 23 -72 -3 -45 -30 14 -14 31 -510 36
-1057 2 -255 7 -444 13 -451 6 -7 12 -791 16 -2036 3 -1113 10 -2037 14 -2054
5 -16 10 -907 12 -1980 3 -2159 9 -1989 -62 -2001 -19 -3 -43 -10 -54 -15 -11
-6 -139 -13 -308 -16 -159 -4 -291 -10 -294 -15 -3 -4 -405 -8 -895 -8 -586 0
-889 -3 -889 -10 0 -7 -724 -10 -2151 -10 -1716 0 -2150 -3 -2147 -12 7 -21
247 -25 1426 -27 687 0 1092 -5 1092 -11 0 -5 33 -11 73 -13 39 -1 -345 -4
-855 -5 -510 -1 -929 -6 -932 -10 -3 -5 -188 -12 -412 -15 -253 -4 -412 -11
-418 -17 -5 -5 -52 -10 -103 -10 -51 0 -93 -4 -93 -9 0 -5 -52 -12 -115 -16
-63 -4 -115 -11 -115 -15 0 -4 -31 -11 -70 -15 -38 -4 -70 -11 -70 -15 0 -5
-22 -11 -50 -15 -28 -4 -50 -11 -50 -16 0 -5 -9 -9 -20 -9 -11 0 -20 -4 -20
-9 0 -5 -18 -11 -40 -15 -22 -3 -40 -10 -40 -15 0 -5 -18 -11 -40 -15 -22 -3
-40 -10 -40 -15 0 -5 -13 -12 -30 -16 -16 -4 -32 -11 -35 -16 -8 -12 -25 -12
-25 1 0 6 5 10 12 10 6 0 33 15 60 32 33 23 48 40 48 56 0 18 -5 22 -30 22
-16 0 -30 -4 -30 -10 0 -5 -11 -10 -25 -10 -14 0 -25 -4 -25 -9 0 -5 -13 -12
-30 -16 -16 -4 -30 -10 -30 -15 0 -5 -13 -11 -30 -15 -16 -4 -30 -10 -30 -15
0 -5 -13 -11 -30 -15 -16 -4 -30 -11 -30 -16 0 -5 -11 -11 -25 -15 -14 -3 -25
-10 -25 -15 0 -5 -7 -9 -15 -9 -8 0 -15 -4 -15 -9 0 -5 -10 -13 -22 -17 -12
-3 -37 -22 -56 -40 -30 -30 -34 -38 -29 -70 5 -32 3 -37 -23 -52 -17 -9 -30
-20 -30 -24 0 -5 -4 -8 -10 -8 -5 0 -10 11 -10 25 0 18 -5 25 -20 25 -11 0
-20 -4 -20 -9 0 -5 -11 -12 -25 -15 -14 -4 -25 -11 -25 -16 0 -6 -5 -10 -11
-10 -12 0 -92 -59 -97 -72 -2 -5 -9 -8 -15 -8 -7 0 -26 -14 -44 -30 -18 -17
-35 -30 -38 -30 -16 0 -165 -162 -165 -180 0 -11 -4 -20 -10 -20 -5 0 -10 -6
-10 -12 -1 -15 -42 -68 -88 -112 -80 -75 -106 -96 -118 -96 -7 0 -14 -5 -16
-12 -2 -6 -30 -13 -61 -16 -31 -2 -57 -8 -57 -13 0 -5 -7 -9 -15 -9 -18 0
-125 -107 -125 -125 0 -14 -21 -25 -49 -25 -9 0 -27 -9 -39 -20 -12 -11 -24
-20 -28 -20 -17 0 -214 -205 -214 -222 0 -4 -11 -8 -25 -8 -14 0 -25 -4 -25
-10 0 -5 -7 -10 -15 -10 -8 0 -23 -9 -32 -20 -10 -11 -21 -20 -26 -20 -10 0
-196 -188 -241 -244 -19 -23 -38 -36 -53 -36 -13 0 -23 -4 -23 -10 0 -5 -5
-10 -11 -10 -7 0 -22 -11 -35 -25 -13 -14 -28 -25 -33 -25 -6 0 -24 -14 -41
-30 -17 -17 -35 -30 -40 -30 -5 0 -17 -11 -28 -25 -11 -14 -25 -25 -31 -25 -5
0 -24 -13 -40 -29 -16 -16 -34 -30 -39 -32 -15 -6 -97 -78 -181 -159 -65 -63
-111 -127 -111 -154 0 -18 -153 -155 -178 -161 -38 -8 -42 6 -42 151 0 60 -4
114 -9 120 -5 5 -11 307 -13 682 -3 497 -8 676 -16 684 -7 7 -12 38 -12 69 0
32 -4 60 -9 63 -4 3 -11 31 -15 63 -4 31 -10 61 -15 67 -5 6 -11 25 -13 41 -3
17 -3 24 -1 17 3 -6 8 -12 12 -12 5 0 11 -12 14 -27 8 -36 49 -83 72 -83 28 0
15 104 -19 158 -14 23 -26 46 -26 52 0 5 -3 10 -7 10 -5 0 -19 17 -33 38 -14
20 -30 41 -37 45 -7 4 -13 13 -13 19 0 12 -244 258 -256 258 -4 0 -20 13 -36
30 -15 17 -34 30 -42 30 -8 0 -16 7 -20 15 -3 8 -12 15 -21 15 -8 0 -15 4 -15
10 0 5 -11 12 -25 16 -14 3 -25 10 -25 15 0 5 -6 9 -14 9 -8 0 -16 3 -18 8 -4
9 -64 38 -98 48 -14 4 -28 11 -31 16 -3 4 -42 11 -87 15 -73 5 -82 4 -82 -11
0 -22 19 -41 50 -50 14 -4 41 -15 60 -24 33 -15 33 -17 11 -20 -13 -2 -26 1
-30 6 -13 21 -326 40 -673 41 -178 1 -278 5 -278 11 0 6 -144 11 -407 12
l-408 3 320 2 c192 2 323 7 329 13 6 6 189 10 493 10 399 0 483 2 483 13 0 20
-135 27 -542 27 -220 0 -348 4 -348 10 0 6 -133 11 -352 14 -546 7 -1252 27
-1258 35 -3 5 -69 11 -148 14 -111 4 -147 9 -161 21 -22 20 -61 21 -61 1 0
-23 -7 -19 -50 28 l-40 42 1 4010 c1 2206 5 4249 10 4540 9 576 22 888 39 893
5 2 10 14 10 27 0 25 53 85 75 85 7 0 15 6 18 13 2 8 31 12 94 12 70 0 93 4
106 17 9 9 17 19 17 23 0 24 38 39 113 43 45 3 85 9 89 15 4 7 331 12 1045 15
591 2 1042 8 1048 13 12 12 9368 12 9381 0z m2680 -746 c3 -141 9 -254 14
-259 14 -14 13 -4636 0 -4656 -6 -10 -10 781 -10 2241 0 1300 -4 2259 -9 2265
-5 5 -10 189 -13 409 -2 251 0 372 5 325 5 -41 11 -187 13 -325z m-5 -7698
c-6 -20 -10 498 -10 1350 -1 760 2 1390 7 1400 11 27 14 -2713 3 -2750z"/>
<path d="M722 11190 c-9 -16 -12 -618 -12 -2876 0 -2577 2 -2857 16 -2871 9
-10 19 -12 25 -6 13 13 7 5765 -6 5770 -6 2 -16 -6 -23 -17z"/>
<path d="M5157 10803 c-15 -8 -25 -18 -22 -24 7 -10 5862 -13 5889 -3 20 8 11
24 -15 24 -10 0 -19 5 -19 10 0 7 -973 10 -2902 9 -2522 -1 -2907 -3 -2931
-16z"/>
<path d="M3265 10750 c-3 -5 -19 -10 -36 -10 -26 0 -29 -3 -29 -30 0 -16 -4
-30 -10 -30 -5 0 -10 -6 -10 -13 0 -8 -11 -24 -25 -37 l-25 -23 0 21 c0 15 -6
22 -19 22 -11 0 -21 -4 -23 -8 -1 -4 -20 -21 -40 -36 -21 -16 -38 -33 -38 -38
0 -5 -7 -16 -15 -24 -8 -9 -15 -24 -15 -34 0 -10 -4 -22 -10 -25 -12 -8 -13
-115 -1 -115 5 0 11 -22 15 -50 4 -27 11 -50 16 -50 6 0 10 -7 10 -15 0 -9 7
-18 15 -21 8 -4 15 -12 15 -20 0 -18 126 -144 144 -144 8 0 16 -4 18 -10 2 -5
18 -12 36 -16 31 -6 32 -5 32 25 l0 31 3053 0 c1678 0 3291 -5 3582 -10 292
-5 1101 -10 1800 -11 l1269 -2 58 58 c32 33 58 62 58 66 0 5 9 16 19 26 10 10
21 29 23 43 2 19 -2 26 -19 28 -21 3 -21 6 -16 91 5 69 2 95 -10 120 -8 17
-12 31 -7 31 4 0 10 -7 14 -15 3 -9 18 -15 36 -15 25 0 30 4 30 24 0 14 -7 31
-15 40 -8 8 -15 19 -15 25 0 21 -69 81 -100 87 -18 4 -44 18 -58 30 -30 29
-92 34 -92 8 0 -13 -8 -15 -47 -9 -100 13 -594 23 -1305 24 -479 1 -739 4
-743 11 -4 7 -1268 10 -3760 10 -2492 0 -3756 -3 -3760 -10z"/>
<path d="M5112 10038 c11 -33 5938 -34 5938 -2 0 12 -455 14 -2971 14 -2372 0
-2970 -3 -2967 -12z"/>
<path d="M7810 8840 c0 -7 -517 -10 -1527 -11 -1545 -1 -1873 -6 -1873 -24 0
-7 244 -11 707 -13 397 -1 711 -6 716 -11 5 -5 -525 -10 -1277 -12 -926 -3
-1289 -7 -1294 -15 -4 -6 -36 -14 -72 -17 -81 -7 -108 -20 -143 -69 -34 -47
-34 -64 -2 -72 23 -6 25 -11 25 -61 0 -30 5 -55 10 -55 6 0 10 -9 10 -20 0
-11 -4 -20 -10 -20 -5 0 -10 -25 -10 -55 0 -50 -2 -55 -25 -61 -35 -9 -31 -25
15 -81 22 -26 44 -52 48 -58 5 -5 23 -21 41 -35 18 -14 39 -30 46 -37 7 -7 24
-15 39 -19 14 -3 26 -10 26 -15 0 -5 21 -9 46 -9 44 0 45 1 42 28 -2 19 -9 28
-25 30 -13 2 -23 7 -23 12 0 5 -13 11 -30 15 -16 4 -30 11 -30 16 0 5 -6 9
-14 9 -7 0 -19 7 -26 15 -11 13 -6 15 32 15 24 0 49 -5 55 -11 7 -7 208 -13
647 -16 350 -4 639 -10 642 -15 8 -12 7701 -10 7709 2 4 6 147 10 396 10 339
0 389 2 389 15 0 8 5 15 10 15 6 0 10 53 10 139 0 83 -4 142 -10 146 -5 3 -10
24 -10 46 0 21 -4 39 -9 39 -4 0 -11 15 -14 34 -10 63 -31 76 -124 76 -49 0
-83 4 -83 10 0 6 -78 10 -213 10 -128 0 -217 4 -223 10 -6 6 -501 12 -1407 17
-768 3 -1397 10 -1397 15 0 4 -649 9 -1442 10 -794 2 -53 4 1646 5 2061 2
3093 6 3100 13 5 5 20 10 33 10 13 0 23 6 23 13 0 21 -360 27 -1572 27 -699 0
-1058 3 -1058 10 0 7 -427 10 -1260 10 -833 0 -1260 -3 -1260 -10z"/>
<path d="M3247 6893 c-4 -3 -7 -10 -7 -15 0 -4 173 -8 384 -8 246 0 387 -4
391 -10 4 -7 596 -10 1743 -10 2154 0 3942 -10 3942 -22 0 -8 -802 -7 -5115 5
-616 2 -1305 -10 -1305 -23 0 -4 -37 -10 -83 -12 -128 -8 -157 -38 -157 -156
0 -39 -4 -73 -9 -76 -5 -3 -12 -21 -15 -40 -4 -19 -12 -36 -19 -39 -8 -2 -12
-29 -12 -83 0 -92 12 -114 87 -163 38 -25 57 -31 102 -31 52 0 55 -1 58 -27 3
-27 5 -28 54 -25 45 2 52 0 57 -18 5 -18 13 -20 85 -20 55 0 82 -4 84 -12 6
-18 6845 -19 6856 -2 4 6 53 13 117 17 66 3 111 9 113 16 2 6 10 11 17 11 17
0 65 50 65 67 0 6 -7 13 -16 15 -22 4 77 105 112 114 13 3 24 12 24 20 0 8 5
14 10 14 6 0 10 43 10 109 0 63 -4 112 -10 116 -5 3 -10 15 -10 26 0 12 -7 19
-20 19 -15 0 -20 7 -20 29 0 17 -4 33 -10 36 -5 3 -10 21 -10 38 0 19 -8 39
-18 48 -27 23 -99 49 -136 49 -19 0 -36 5 -38 10 -2 6 -75 13 -181 17 -98 3
-180 10 -183 15 -6 9 -6927 11 -6937 1z"/>
</g>
</svg>
